<svg xmlns="http://www.w3.org/2000/svg" viewBox="0 0 800 500" preserveAspectRatio="xMidYMid slice" role="img" aria-label="Sejarah singkat sekolah">
	<defs>
		<linearGradient id="histbg" x1="0" y1="0" x2="1" y2="1">
			<stop offset="0%" stop-color="#ecfdf5" />
			<stop offset="100%" stop-color="#dbeafe" />
		</linearGradient>
	</defs>
	<rect width="800" height="500" fill="url(#histbg)" />
	<g opacity="0.9">
		<rect x="80" y="180" width="220" height="240" fill="#f1f5f9" stroke="#0f172a" stroke-width="3" />
		<polygon points="60,180 190,80 320,180" fill="#1d4ed8" stroke="#0f172a" stroke-width="3" />
		<rect x="170" y="280" width="40" height="140" fill="#1e293b" />
		<rect x="110" y="220" width="40" height="40" fill="#bfdbfe" />
		<rect x="230" y="220" width="40" height="40" fill="#bfdbfe" />
		<rect x="110" y="320" width="40" height="40" fill="#bfdbfe" />
		<rect x="230" y="320" width="40" height="40" fill="#bfdbfe" />
	</g>
	<g opacity="0.95" transform="translate(360 0)">
		<rect x="80" y="120" width="320" height="300" fill="#ffffff" stroke="#0f172a" stroke-width="3" />
		<rect x="80" y="100" width="320" height="22" fill="#10b981" />
		<rect x="120" y="170" width="40" height="80" fill="#bfdbfe" />
		<rect x="180" y="170" width="40" height="80" fill="#bfdbfe" />
		<rect x="240" y="170" width="40" height="80" fill="#bfdbfe" />
		<rect x="300" y="170" width="40" height="80" fill="#bfdbfe" />
		<rect x="120" y="270" width="40" height="80" fill="#bfdbfe" />
		<rect x="180" y="270" width="40" height="80" fill="#bfdbfe" />
		<rect x="240" y="270" width="40" height="80" fill="#bfdbfe" />
		<rect x="300" y="270" width="40" height="80" fill="#bfdbfe" />
		<rect x="220" y="370" width="60" height="50" fill="#1e293b" />
	</g>
	<rect x="0" y="420" width="800" height="80" fill="#047857" />
</svg>
